<svg height="512" viewBox="0 0 512 512" width="512" xmlns="http://www.w3.org/2000/svg"><g><g><path d="m48 176h288v296h-288z" fill="#d80027"/><path d="m336 36v140h-288v-140a19.994 19.994 0 0 1 20-20h248a19.994 19.994 0 0 1 20 20z" fill="#898890"/><path d="m24 472h336v24h-336z" fill="#2d2d30"/><path d="m72 40h184v112h-184z" fill="#5aaae7"/><circle cx="296" cy="64" fill="#ffda44" r="16"/><circle cx="296" cy="128" fill="#ffda44" r="16"/><path d="m416 136h72v128h-72z" fill="#d80027"/><path d="m456 48h32v88h-32z" fill="#898890"/><path d="m432 264h48v24h-48z" fill="#2d2d30"/><path d="m336 152h32v88h-32z" fill="#898890"/><circle cx="192" cy="328" fill="#e0e0e2" r="96"/><path d="m240 344a48 48 0 0 1 -96 0c0-26.51 48-80 48-80s48 53.49 48 80z" fill="#5aaae7"/></g><g><path d="m72 160h184a8 8 0 0 0 8-8v-112a8 8 0 0 0 -8-8h-184a8 8 0 0 0 -8 8v112a8 8 0 0 0 8 8zm8-112h168v96h-168z"/><path d="m296 88a24 24 0 1 0 -24-24 24.027 24.027 0 0 0 24 24zm0-32a8 8 0 1 1 -8 8 8.009 8.009 0 0 1 8-8z"/><path d="m296 152a24 24 0 1 0 -24-24 24.027 24.027 0 0 0 24 24zm0-32a8 8 0 1 1 -8 8 8.009 8.009 0 0 1 8-8z"/><path d="m488 40h-32a8 8 0 0 0 -8 8v80h-32a8 8 0 0 0 -8 8v128a8 8 0 0 0 8 8h8v16a8 8 0 0 0 8 8h16v88a32.036 32.036 0 0 1 -32 32h-16a32.036 32.036 0 0 1 -32-32v-136a8 8 0 0 0 8-8v-88a8 8 0 0 0 -8-8h-24v-108a28.031 28.031 0 0 0 -28-28h-248a28.031 28.031 0 0 0 -28 28v428h-16a8 8 0 0 0 -8 8v24a8 8 0 0 0 8 8h336a8 8 0 0 0 8-8v-24a8 8 0 0 0 -8-8h-16v-216h8v136a48.051 48.051 0 0 0 48 48h16a48.051 48.051 0 0 0 48-48v-88h16a8 8 0 0 0 8-8v-16a8 8 0 0 0 8-8v-216a8 8 0 0 0 -8-8zm-432-4a12.01 12.01 0 0 1 12-12h248a12.01 12.01 0 0 1 12 12v132h-272zm0 148h272v280h-272zm296 296v8h-320v-8zm8-248h-16v-72h16zm112 48h-32v-8h32zm8-24h-56v-112h56zm0-128h-16v-72h16z"/><path d="m192 224a104 104 0 1 0 104 104 104.118 104.118 0 0 0 -104-104zm0 192a88 88 0 1 1 88-88 88.1 88.1 0 0 1 -88 88z"/><path d="m192 256a8 8 0 0 0 -5.954 2.657c-5.123 5.708-50.046 56.6-50.046 85.343a56 56 0 0 0 112 0c0-28.743-44.923-79.635-50.046-85.343a8 8 0 0 0 -5.954-2.657zm0 128a40.045 40.045 0 0 1 -40-40c0-15.252 22.53-47.071 40-67.8 17.471 20.72 40 52.53 40 67.8a40.045 40.045 0 0 1 -40 40z"/></g></g></svg>