<?xml version="1.0" encoding="UTF-8"?>
<svg xmlns="http://www.w3.org/2000/svg" id="Layer_1" data-name="Layer 1" viewBox="0 0 512 512" width="512" height="512"><path d="M217.4,359.414a35.978,35.978,0,0,0,31.062-54.178l-25.885-44.189a6,6,0,0,0-10.354,0l-25.886,44.189A35.98,35.98,0,0,0,217.4,359.414ZM196.689,311.3l20.708-35.35,20.708,35.35a24,24,0,1,1-41.416,0Z"/><path d="M425.037,108.6a25.32,25.32,0,0,0-20.983-15.336V68.426a22.6,22.6,0,0,0-6.664-16.088L380.267,35.21a6,6,0,1,0-8.486,8.485L388.9,60.823a10.682,10.682,0,0,1,3.15,7.6V93.145H379.5a6,6,0,0,0-6,6v97.6a6,6,0,0,0,6,6h2.748V215.5a6,6,0,0,0,6,6h7.567v52.054a26.142,26.142,0,0,1-32.484,25.33v-257A36.924,36.924,0,0,0,326.451,5H116.4A36.924,36.924,0,0,0,79.518,41.882V460.421H71.427a10.011,10.011,0,0,0-10,10V497a10.011,10.011,0,0,0,10,10h300a10.011,10.011,0,0,0,10-10V470.421a10.011,10.011,0,0,0-10-10h-8.091V311.127a38.093,38.093,0,0,0,44.484-37.571V221.5H417.1a6,6,0,0,0,6-6v-12.76h5.543a6,6,0,0,0,6-6V183.489l13.171-8.458a6,6,0,0,0,2.281-7.394ZM91.518,41.882A24.91,24.91,0,0,1,116.4,17H326.451a24.91,24.91,0,0,1,24.882,24.882v99.7H91.518Zm0,111.7H351.333v125.43H293.884A82.011,82.011,0,0,0,188.077,232.1a6,6,0,1,0,4.4,11.164,70.082,70.082,0,1,1,24.848,135.581,70.4,70.4,0,0,1-70-68.641,69.619,69.619,0,0,1,8.848-35.5,5.955,5.955,0,0,0-1.029-7.1l0,0a6,6,0,0,0-9.472,1.29,81.923,81.923,0,0,0-4.769,10.117H91.518Zm206.014,137.43h53.8v35.656H297.511a81.878,81.878,0,0,0,.021-35.656Zm-206.014,0h45.736a81.732,81.732,0,0,0,.041,35.656H91.518Zm0,47.656h49.469a82.058,82.058,0,0,0,152.852,0h57.494V460.421H91.518ZM369.424,472.421V495h-296V472.421ZM385.5,133.991h8.536a1.043,1.043,0,0,1,1.042,1.042V161.2a1.044,1.044,0,0,1-1.042,1.042H385.5ZM411.1,209.5H394.25v-6.76H411.1Zm14.3-34.34a6,6,0,0,0-2.758,5.049v10.531H385.5v-16.5h8.536A13.057,13.057,0,0,0,407.08,161.2v-26.17a13.057,13.057,0,0,0-13.042-13.042H385.5V105.145H401.68a13.352,13.352,0,0,1,12.311,8.147l23.082,54.376Z"/><path d="M306.521,47.577H136.331A14.252,14.252,0,0,0,122.1,61.812V116.7a6,6,0,0,0,6,6h186.66a6,6,0,0,0,6-6V61.812A14.251,14.251,0,0,0,306.521,47.577Zm2.234,63.12H134.1V61.812a2.238,2.238,0,0,1,2.236-2.235h170.19a2.237,2.237,0,0,1,2.234,2.235Z"/><path d="M112.524,163.374a6,6,0,0,0-6,6v2.666a6,6,0,0,0,12,0v-2.666A6,6,0,0,0,112.524,163.374Z"/><path d="M112.524,185.67a6,6,0,0,0-6,6v71.835a6,6,0,0,0,12,0V191.67A6,6,0,0,0,112.524,185.67Z"/></svg>
