<svg width="180" height="30" viewBox="0 0 180 30" fill="none" xmlns="http://www.w3.org/2000/svg">
<path d="M18.1892 29.4118H10.9164L10.8646 5.88239H0V4.03909e-05H29.0701V5.88239H18.2055L18.1892 29.4118Z" fill="#202020"/>
<path d="M56.6721 18.0883V19.7059H36.1175C36.343 21.5694 37.0268 23.0589 38.098 23.8212C39.1692 24.5836 40.8605 24.9647 43.1721 24.9647C47.1467 24.9647 49.2583 24.0753 49.6248 22.353H56.3785C55.8993 27.52 51.4465 30 43.0179 30C38.1976 30 34.6871 29.1577 32.432 27.2094C30.1768 25.2612 29.0701 22.2388 29.0701 18.0883C29.0701 14.0788 30.1627 11.1012 32.3897 9.20946C34.6448 7.3177 38.2258 6.47062 43.0179 6.47062C47.8101 6.47062 51.2624 7.30358 53.4893 9.16711C55.7163 11.0024 56.6721 13.9377 56.6721 18.0883ZM43.0029 11.5389C40.8042 11.5389 39.1833 11.8636 38.1403 12.513C37.1255 13.1624 36.4912 14.2777 36.2375 15.8589H49.6838C49.6274 14.3342 49.0636 13.233 47.9924 12.5553C46.9494 11.8777 45.2863 11.5389 43.0029 11.5389Z" fill="#202020"/>
<path d="M68.124 29.4118H61.0767V4.03909e-05H68.124V29.4118Z" fill="#202020"/>
<path d="M101.19 19.2047L101.305 7.05881H108.352V29.4118H101.305V25.5882C100.488 27.1976 99.2731 28.3388 97.8918 29.073C96.5105 29.7788 94.7851 30 92.6427 30C89.5137 30 87.2645 29.44 85.9678 28.0565C84.6429 26.6447 83.9804 24.273 83.9804 20.9412L83.9973 7.05881H91.0277V20.7353C91.0277 23.3329 92.705 24.6259 95.9468 24.6259C99.3858 24.6259 101.134 22.8189 101.19 19.2047Z" fill="#202020"/>
<path d="M124.062 30C116.733 30 113.011 27.4635 112.757 22.3529H119.217C119.386 24.1317 121.185 25.1341 124.568 25.1341C127.5 25.1341 128.965 24.3859 128.965 22.8894C128.965 22.3812 128.81 22 128.5 21.7459C128.218 21.4636 127.711 21.2659 126.978 21.153L120.213 19.8824C117.929 19.4589 116.252 18.753 115.181 17.7647C114.11 16.7765 113.574 15.4353 113.574 13.7412C113.574 11.2283 114.476 9.37887 116.28 8.19299C118.084 6.97887 120.934 6.47058 124.796 6.47058C131.562 6.47058 135.029 8.93881 135.367 13.8235H128.907C128.738 12.9765 128.416 12.2447 127.739 11.8777C127.063 11.5106 126.034 11.3271 124.653 11.3271C121.918 11.3271 120.551 12.0189 120.551 13.4024C120.551 14.1647 121.242 14.673 122.623 14.9271L129.177 16.1553C131.517 16.5789 133.236 17.313 134.336 18.3577C135.463 19.3741 135.954 20.7494 135.954 22.5C135.954 25.0976 135.068 27.0259 133.152 28.2683C131.235 29.5106 128.149 30 124.062 30Z" fill="#202020"/>
<path d="M79.5759 29.4117H72.5286V0H79.5759V29.4117Z" fill="#202020"/>
<path d="M150.636 7.05881V0L180 11.4706V18.5294L150.636 29.4117V22.3529L172.366 14.8529L150.636 7.05881Z" fill="#202020"/>
</svg>
